<svg width="1920" height="1107" viewBox="0 0 1920 1107" fill="none" xmlns="http://www.w3.org/2000/svg">
<rect width="116" height="345" transform="matrix(-1 0 0 1 1778 152)" fill="#F3FAE7"/>
<rect width="166" height="344" transform="matrix(-1 0 0 1 820 153)" fill="#F3FAE7"/>
<rect width="153" height="358" transform="matrix(-1 0 0 1 336 500)" fill="#F3FAE7"/>
<line y1="-0.5" x2="1107" y2="-0.5" transform="matrix(4.37114e-08 1 1 -4.37114e-08 1778 0)" stroke="#DEE3D4" stroke-dasharray="6 6"/>
<line y1="-0.5" x2="1920" y2="-0.5" transform="matrix(1 -5.04047e-08 -1.51628e-07 -1 0 152)" stroke="#DEE3D4" stroke-dasharray="6 6"/>
<line y1="-0.5" x2="1920" y2="-0.5" transform="matrix(1 -5.04047e-08 -1.51628e-07 -1 0 447)" stroke="#DEE3D4" stroke-dasharray="6 6"/>
<line y1="-0.5" x2="1920" y2="-0.5" transform="matrix(1 -5.04047e-08 -1.51628e-07 -1 0 719)" stroke="#DEE3D4" stroke-dasharray="6 6"/>
<line y1="-0.5" x2="1920" y2="-0.5" transform="matrix(1 -5.04047e-08 -1.51628e-07 -1 0 497)" stroke="#DEE3D4" stroke-dasharray="6 6"/>
<line y1="-0.5" x2="1920" y2="-0.5" transform="matrix(1 -5.04047e-08 -1.51628e-07 -1 0 202)" stroke="#DEE3D4" stroke-dasharray="6 6"/>
<line y1="-0.5" x2="1920" y2="-0.5" transform="matrix(1 -5.04047e-08 -1.51628e-07 -1 0 769)" stroke="#DEE3D4" stroke-dasharray="6 6"/>
<line y1="-0.5" x2="1107" y2="-0.5" transform="matrix(4.37114e-08 1 1 -4.37114e-08 1662 0)" stroke="#DEE3D4" stroke-dasharray="6 6"/>
<line y1="-0.5" x2="1107" y2="-0.5" transform="matrix(4.37114e-08 1 1 -4.37114e-08 1435 0)" stroke="#DEE3D4" stroke-dasharray="6 6"/>
<line y1="-0.5" x2="1107" y2="-0.5" transform="matrix(4.37114e-08 1 1 -4.37114e-08 1300 0)" stroke="#DEE3D4" stroke-dasharray="6 6"/>
<line y1="-0.5" x2="1107" y2="-0.5" transform="matrix(4.37114e-08 1 1 -4.37114e-08 1141 0)" stroke="#DEE3D4" stroke-dasharray="6 6"/>
<line y1="-0.5" x2="1107" y2="-0.5" transform="matrix(4.37114e-08 1 1 -4.37114e-08 974 0)" stroke="#DEE3D4" stroke-dasharray="6 6"/>
<line y1="-0.5" x2="1107" y2="-0.5" transform="matrix(4.37114e-08 1 1 -4.37114e-08 821 0)" stroke="#DEE3D4" stroke-dasharray="6 6"/>
<line y1="-0.5" x2="1107" y2="-0.5" transform="matrix(4.37114e-08 1 1 -4.37114e-08 654 0)" stroke="#DEE3D4" stroke-dasharray="6 6"/>
<line y1="-0.5" x2="1107" y2="-0.5" transform="matrix(4.37114e-08 1 1 -4.37114e-08 487 0)" stroke="#DEE3D4" stroke-dasharray="6 6"/>
<line y1="-0.5" x2="1107" y2="-0.5" transform="matrix(4.37114e-08 1 1 -4.37114e-08 337 0)" stroke="#DEE3D4" stroke-dasharray="6 6"/>
<line y1="-0.5" x2="1107" y2="-0.5" transform="matrix(4.37114e-08 1 1 -4.37114e-08 183 0)" stroke="#DEE3D4" stroke-dasharray="6 6"/>
</svg>
