<svg width="96" height="95" viewBox="0 0 96 95" fill="none" xmlns="http://www.w3.org/2000/svg">
<path d="M53.1099 32.5459L53.2622 33.3916L53.9224 32.8418L77.1226 13.5107L62.1138 39.7158L61.687 40.4609L62.5464 40.4639L92.7437 40.5684L64.4028 50.9951L63.5972 51.292L64.2534 51.8467L87.3188 71.3369L58.9058 61.1074L58.0981 60.8164L58.2446 61.6631L63.3853 91.4209L48.1958 65.3203L47.7632 64.5781L47.3306 65.3203L32.1401 91.4209L37.2817 61.6631L37.4282 60.8164L36.6206 61.1074L8.20654 71.3369L31.2729 51.8467L31.9292 51.292L31.1235 50.9951L2.78174 40.5684L32.98 40.4639L33.8394 40.4609L33.4126 39.7158L18.4028 13.5107L41.604 32.8418L42.2642 33.3916L42.4165 32.5459L47.7632 2.82422L53.1099 32.5459Z" stroke="#A8B58D"/>
</svg>
